<?xml version="1.0" standalone="no"?><!DOCTYPE svg PUBLIC "-//W3C//DTD SVG 1.1//EN" "http://www.w3.org/Graphics/SVG/1.1/DTD/svg11.dtd"><svg t="1532326301705" class="icon" style="" viewBox="0 0 1024 1024" version="1.1" xmlns="http://www.w3.org/2000/svg" p-id="2352" xmlns:xlink="http://www.w3.org/1999/xlink" width="200" height="200"><defs><style type="text/css"></style></defs><path d="M506.4 826.8c-42.5 0-83.7-8.3-122.5-24.7-37.5-15.9-71.2-38.6-100.1-67.5-28.9-28.9-51.6-62.6-67.5-100.1-16.4-38.8-24.7-80-24.7-122.5s8.3-83.7 24.7-122.5c15.9-37.5 38.6-71.2 67.5-100.1 28.9-28.9 62.6-51.6 100.1-67.5 38.8-16.4 80-24.7 122.5-24.7s83.7 8.3 122.5 24.7c37.5 15.9 71.2 38.6 100.1 67.5 28.9 28.9 51.6 62.6 67.5 100.1 16.4 38.8 24.7 80 24.7 122.5s-8.3 83.7-24.7 122.5c-15.9 37.5-38.6 71.2-67.5 100.1-28.9 28.9-62.6 51.6-100.1 67.5-38.8 16.4-80 24.7-122.5 24.7z" fill="#91CFF9" p-id="2353"></path><path d="M506.4 202c171.2 0 309.9 138.8 309.9 309.9s-138.7 310-309.9 310-309.9-138.8-309.9-310S335.2 202 506.4 202m0-9.8c-43.2 0-85 8.5-124.5 25.1-38.1 16.1-72.3 39.2-101.6 68.5-29.4 29.4-52.4 63.6-68.5 101.6-16.7 39.4-25.1 81.3-25.1 124.5s8.5 85 25.1 124.5c16.1 38.1 39.2 72.3 68.5 101.6 29.4 29.4 63.6 52.4 101.6 68.5 39.4 16.7 81.3 25.1 124.5 25.1s85-8.5 124.5-25.1c38.1-16.1 72.3-39.2 101.6-68.5 29.4-29.4 52.4-63.6 68.5-101.6 16.7-39.4 25.1-81.3 25.1-124.5s-8.5-85-25.1-124.5c-16.1-38.1-39.2-72.3-68.5-101.6-29.4-29.4-63.6-52.4-101.6-68.5-39.5-16.6-81.4-25.1-124.5-25.1z" fill="#6D4120" p-id="2354"></path><path d="M506.4 512.6m-268.9 0a268.9 268.9 0 1 0 537.8 0 268.9 268.9 0 1 0-537.8 0Z" fill="#77C9F7" p-id="2355"></path><path d="M506.5 778.3c-17 0-30.9-14.1-30.9-31.4l-0.3-469.8c0-0.3 0-0.5 0.1-0.8 0.9-16.6 14.4-29.6 30.8-29.6 16.5 0 29.9 12.9 30.8 29.6 0 0.2 0.1 0.5 0.1 0.7l0.3 469.8c0 8.4-3.2 16.3-9 22.2-5.8 6.1-13.6 9.3-21.9 9.3 0.1 0 0 0 0 0z" fill="#FFFFFF" p-id="2356"></path><path d="M506.2 251.7c14 0 25.4 11.3 26 25.4l0.3 469.8c0 14.7-11.6 26.5-26 26.5-14.3 0-26-11.9-26-26.5l-0.3-469.8c0.6-14.1 12-25.4 26-25.4m0-9.9c-9.4 0-18.2 3.6-24.9 10.2-6.4 6.3-10.2 14.7-10.8 23.8-0.1 0.4-0.1 0.8-0.1 1.2l0.3 469.8c0 20 16.1 36.3 35.8 36.3 19.8 0 35.8-16.3 35.8-36.4l-0.3-469.6c0-0.4 0-0.8-0.1-1.3-0.6-9-4.4-17.4-10.8-23.7-6.7-6.6-15.5-10.3-24.9-10.3z" fill="#6D4120" p-id="2357"></path><path d="M272 543.6c-17.3 0-31.4-13.8-31.4-30.9 0-17 14.1-30.9 31.4-30.9l469.8-0.3c0.3 0 0.5 0 0.8 0.1 16.6 0.9 29.6 14.4 29.6 30.8s-12.9 29.9-29.6 30.8c-0.2 0-0.5 0.1-0.8 0.1l-469.8 0.3z" fill="#FFFFFF" p-id="2358"></path><path d="M741.8 486.4c14.1 0.6 25.4 12 25.4 26s-11.3 25.4-25.4 26l-469.8 0.3c-14.6 0-26.5-11.6-26.5-26 0-14.3 11.9-26 26.5-26l469.8-0.3m0-9.8l-469.8 0.3c-9.7 0-18.8 3.7-25.6 10.4-6.9 6.8-10.7 15.8-10.7 25.4 0 19.7 16.3 35.8 36.3 35.8l469.8-0.3c0.4 0 0.8 0 1.2-0.1 9-0.6 17.4-4.4 23.8-10.8 6.6-6.7 10.2-15.6 10.2-24.9 0-9.3-3.6-18.2-10.2-24.9-6.3-6.4-14.8-10.3-23.8-10.8-0.4-0.1-0.8-0.1-1.2-0.1z" fill="#6D4120" p-id="2359"></path><path d="M340.2 709.5c-8.2 0-15.9-3.2-21.7-8.9-5.9-5.8-9-13.7-8.9-22 0.1-8.3 3.4-16.1 9.3-22.1l332-332.4c0.2-0.2 0.4-0.3 0.6-0.5 5.8-5.2 13.3-8.1 21.1-8.1 8.2 0 15.9 3.2 21.7 8.9 11.6 11.6 12 30.3 0.9 42.7-0.1 0.2-0.3 0.4-0.5 0.6l-332 332.4c-6.1 6.1-14 9.4-22.5 9.4z" fill="#FFFFFF" p-id="2360"></path><path d="M672.6 320.5c6.6 0 13.2 2.5 18.2 7.5 9.9 9.9 10 25.9 0.4 36.3l-332 332.4c-5.3 5.3-12.1 7.9-18.9 7.9-6.6 0-13.2-2.5-18.2-7.5-10.2-10.1-10-26.8 0.4-37.1l332-332.4c5.1-4.7 11.6-7.1 18.1-7.1m0-9.8c-8.9 0-17.5 3.3-24.2 9.2-0.3 0.2-0.6 0.5-0.9 0.8l-332 332.4c-14.2 14.2-14.3 37.1-0.4 51 6.7 6.7 15.6 10.4 25.1 10.4 9.7 0 18.9-3.8 25.9-10.8l332-332.4c0.3-0.3 0.6-0.6 0.8-0.9 6-6.8 9.2-15.5 9.1-24.5-0.1-9.4-3.8-18.2-10.4-24.8-6.6-6.8-15.5-10.4-25-10.4z" fill="#6D4120" p-id="2361"></path><path d="M672.8 709.3c-7.8 0-15.2-2.9-21-8-0.2-0.1-0.4-0.3-0.6-0.5l-332.4-332c-5.9-5.9-9.2-13.8-9.3-22.1-0.1-8.3 3.1-16.2 8.9-22 5.8-5.8 13.5-8.9 21.7-8.9 8.4 0 16.4 3.3 22.4 9.3l332.4 332c0.2 0.2 0.3 0.4 0.5 0.6 11.1 12.4 10.8 31.1-0.9 42.7-5.8 5.7-13.5 8.9-21.7 8.9z" fill="#FFFFFF" p-id="2362"></path><path d="M340 320.7c6.8 0 13.7 2.6 18.9 7.9l332.4 332c9.6 10.4 9.5 26.4-0.3 36.3-5 5-11.6 7.5-18.2 7.5-6.5 0-13-2.4-18.1-7.1l-332.4-332c-10.4-10.4-10.6-27-0.4-37.1 4.9-5 11.5-7.5 18.1-7.5m0-9.8c-9.5 0-18.5 3.7-25.2 10.4-13.9 14-13.8 36.8 0.4 51l332.4 332c0.3 0.3 0.6 0.6 0.9 0.8 6.7 5.9 15.2 9.1 24.1 9.1 9.5 0 18.5-3.7 25.2-10.4 6.6-6.6 10.3-15.4 10.4-24.8 0.1-9-3.2-17.7-9.2-24.5-0.2-0.3-0.5-0.6-0.8-0.9l-332.4-332c-6.9-6.9-16.1-10.7-25.8-10.7z" fill="#6D4120" p-id="2363"></path><path d="M506.4 706.5c-51.8 0-100.5-20.2-137.2-56.8-36.6-36.6-56.8-85.3-56.8-137.2s20.2-100.5 56.8-137.2 85.3-56.8 137.2-56.8 100.5 20.2 137.2 56.8c36.6 36.6 56.8 85.3 56.8 137.2S680.2 613 643.6 649.7c-36.7 36.6-85.4 56.8-137.2 56.8z" fill="#91CFF9" p-id="2364"></path><path d="M506.4 323.5c104.4 0 189.1 84.6 189.1 189.1s-84.6 189.1-189.1 189.1S317.3 617 317.3 512.6 402 323.5 506.4 323.5m0-9.8c-26.8 0-52.9 5.3-77.4 15.6-23.7 10-44.9 24.4-63.2 42.6-18.3 18.3-32.6 39.5-42.6 63.2-10.4 24.5-15.6 50.6-15.6 77.4 0 26.8 5.3 52.9 15.6 77.4 10 23.7 24.4 44.9 42.6 63.2 18.3 18.3 39.5 32.6 63.2 42.6 24.5 10.4 50.6 15.6 77.4 15.6 26.8 0 52.9-5.3 77.4-15.6 23.7-10 44.9-24.4 63.2-42.6 18.3-18.3 32.6-39.5 42.6-63.2 10.4-24.5 15.6-50.6 15.6-77.4 0-26.8-5.3-52.9-15.6-77.4-10-23.7-24.4-44.9-42.6-63.2-18.3-18.3-39.5-32.6-63.2-42.6-24.5-10.4-50.6-15.6-77.4-15.6z" fill="#6D4120" p-id="2365"></path><path d="M505.8 322.9c-4.8 0-9.7 0.2-14.4 0.5 97.7 7.4 174.6 88.9 174.6 188.5s-77 181.2-174.6 188.5c4.8 0.4 9.6 0.5 14.4 0.5 104.4 0 189.1-84.6 189.1-189.1s-84.7-188.9-189.1-188.9z" fill="#77C9F7" p-id="2366"></path><path d="M506.4 512.6m-88.4 0a88.4 88.4 0 1 0 176.8 0 88.4 88.4 0 1 0-176.8 0Z" fill="#77C9F7" p-id="2367"></path><path d="M506.4 581.6c-38.1 0-69-31-69-69 0-38.1 31-69 69-69s69 31 69 69-30.9 69-69 69z" fill="#FFFFFF" p-id="2368"></path><path d="M506.4 448.4c35.4 0 64.1 28.7 64.1 64.1 0 35.4-28.7 64.1-64.1 64.1s-64.1-28.7-64.1-64.1c0-35.4 28.7-64.1 64.1-64.1m0-9.8c-19.8 0-38.3 7.7-52.3 21.7s-21.7 32.5-21.7 52.3c0 19.8 7.7 38.3 21.7 52.3s32.5 21.7 52.3 21.7c19.8 0 38.3-7.7 52.3-21.7s21.7-32.5 21.7-52.3c0-19.7-7.7-38.3-21.7-52.3s-32.6-21.7-52.3-21.7z" fill="#6D4120" p-id="2369"></path><path d="M506.4 293.1c-20 0-36.2-16.2-36.2-36.2s16.2-36.2 36.2-36.2c20 0 36.2 16.2 36.2 36.2s-16.3 36.2-36.2 36.2z" fill="#C0E6FC" p-id="2370"></path><path d="M506.4 225.6c17.3 0 31.3 14 31.3 31.3s-14 31.3-31.3 31.3-31.3-14-31.3-31.3 14-31.3 31.3-31.3m0-9.8c-22.7 0-41.1 18.4-41.1 41.1s18.4 41.1 41.1 41.1c22.7 0 41.1-18.4 41.1-41.1s-18.4-41.1-41.1-41.1z" fill="#6D4120" p-id="2371"></path><path d="M506.4 225.6c-1.2 0-2.4 0.1-3.6 0.2 15.6 1.8 27.7 15 27.7 31.1s-12.1 29.3-27.7 31.1c1.2 0.1 2.4 0.2 3.6 0.2 17.3 0 31.3-14 31.3-31.3 0-17.2-14-31.3-31.3-31.3z" fill="#7ED2FC" p-id="2372"></path><path d="M506.4 802.9c-20 0-36.2-16.2-36.2-36.2 0-20 16.2-36.2 36.2-36.2 20 0 36.2 16.2 36.2 36.2 0 19.9-16.3 36.2-36.2 36.2z" fill="#C0E6FC" p-id="2373"></path><path d="M506.4 735.4c17.3 0 31.3 14 31.3 31.3s-14 31.3-31.3 31.3-31.3-14-31.3-31.3 14-31.3 31.3-31.3m0-9.8c-22.7 0-41.1 18.4-41.1 41.1s18.4 41.1 41.1 41.1c22.7 0 41.1-18.4 41.1-41.1s-18.4-41.1-41.1-41.1z" fill="#6D4120" p-id="2374"></path><path d="M506.4 735.4c-1.2 0-2.4 0.1-3.6 0.2 15.6 1.8 27.7 15 27.7 31.1s-12.1 29.3-27.7 31.1c1.2 0.1 2.4 0.2 3.6 0.2 17.3 0 31.3-14 31.3-31.3s-14-31.3-31.3-31.3z" fill="#7ED2FC" p-id="2375"></path><path d="M685.3 729.5c-20 0-36.2-16.2-36.2-36.2 0-20 16.2-36.2 36.2-36.2 20 0 36.2 16.2 36.2 36.2 0 20-16.3 36.2-36.2 36.2z" fill="#C0E6FC" p-id="2376"></path><path d="M685.3 662.1c17.3 0 31.3 14 31.3 31.3s-14 31.3-31.3 31.3-31.3-14-31.3-31.3 14-31.3 31.3-31.3m0-9.9c-22.7 0-41.1 18.4-41.1 41.1s18.4 41.1 41.1 41.1 41.1-18.4 41.1-41.1-18.5-41.1-41.1-41.1z" fill="#6D4120" p-id="2377"></path><path d="M685.3 662.1c-1.2 0-2.4 0.1-3.6 0.2 15.6 1.8 27.7 15 27.7 31.1s-12.1 29.3-27.7 31.1c1.2 0.1 2.4 0.2 3.6 0.2 17.3 0 31.3-14 31.3-31.3s-14.1-31.3-31.3-31.3z" fill="#7ED2FC" p-id="2378"></path><path d="M327.5 371.8c-20 0-36.2-16.2-36.2-36.2s16.2-36.2 36.2-36.2c20 0 36.2 16.2 36.2 36.2s-16.3 36.2-36.2 36.2z" fill="#C0E6FC" p-id="2379"></path><path d="M327.5 304.3c17.3 0 31.3 14 31.3 31.3s-14 31.3-31.3 31.3-31.3-14-31.3-31.3 14-31.3 31.3-31.3m0-9.8c-22.7 0-41.1 18.4-41.1 41.1s18.4 41.1 41.1 41.1 41.1-18.4 41.1-41.1-18.5-41.1-41.1-41.1z" fill="#6D4120" p-id="2380"></path><path d="M327.5 304.3c-1.2 0-2.4 0.1-3.6 0.2 15.6 1.8 27.7 15 27.7 31.1s-12.1 29.3-27.7 31.1c1.2 0.1 2.4 0.2 3.6 0.2 17.3 0 31.3-14 31.3-31.3s-14.1-31.3-31.3-31.3z" fill="#7ED2FC" p-id="2381"></path><path d="M759.5 548.1c-20 0-36.2-16.2-36.2-36.2 0-20 16.2-36.2 36.2-36.2 20 0 36.2 16.2 36.2 36.2 0 20-16.3 36.2-36.2 36.2z" fill="#C0E6FC" p-id="2382"></path><path d="M759.5 480.7c17.3 0 31.3 14 31.3 31.3s-14 31.3-31.3 31.3-31.3-14-31.3-31.3 14-31.3 31.3-31.3m0-9.9c-22.7 0-41.1 18.4-41.1 41.1 0 22.7 18.4 41.1 41.1 41.1s41.1-18.4 41.1-41.1c0-22.6-18.5-41.1-41.1-41.1z" fill="#6D4120" p-id="2383"></path><path d="M759.5 480.7c-1.2 0-2.4 0.1-3.6 0.2 15.6 1.8 27.7 15 27.7 31.1s-12.1 29.3-27.7 31.1c1.2 0.1 2.4 0.2 3.6 0.2 17.3 0 31.3-14 31.3-31.3s-14.1-31.3-31.3-31.3z" fill="#7ED2FC" p-id="2384"></path><path d="M250.6 548.7c-20 0-36.2-16.2-36.2-36.2 0-20 16.2-36.2 36.2-36.2 20 0 36.2 16.2 36.2 36.2 0 20-16.2 36.2-36.2 36.2z" fill="#C0E6FC" p-id="2385"></path><path d="M250.6 481.3c17.3 0 31.3 14 31.3 31.3s-14 31.3-31.3 31.3-31.3-14-31.3-31.3 14-31.3 31.3-31.3m0-9.9c-22.7 0-41.1 18.4-41.1 41.1 0 22.7 18.4 41.1 41.1 41.1s41.1-18.4 41.1-41.1c0-22.6-18.4-41.1-41.1-41.1z" fill="#6D4120" p-id="2386"></path><path d="M250.6 481.3c-1.2 0-2.4 0.1-3.6 0.2 15.6 1.8 27.7 15 27.7 31.1s-12.1 29.3-27.7 31.1c1.2 0.1 2.4 0.2 3.6 0.2 17.3 0 31.3-14 31.3-31.3s-14-31.3-31.3-31.3z" fill="#7ED2FC" p-id="2387"></path><path d="M688.9 368.4c-20 0-36.2-16.2-36.2-36.2 0-20 16.2-36.2 36.2-36.2 20 0 36.2 16.2 36.2 36.2 0 20-16.3 36.2-36.2 36.2z" fill="#C0E6FC" p-id="2388"></path><path d="M688.9 300.9c17.3 0 31.3 14 31.3 31.3s-14 31.3-31.3 31.3-31.3-14-31.3-31.3 14-31.3 31.3-31.3m0-9.8c-22.7 0-41.1 18.4-41.1 41.1s18.4 41.1 41.1 41.1 41.1-18.4 41.1-41.1-18.5-41.1-41.1-41.1z" fill="#6D4120" p-id="2389"></path><path d="M688.9 300.9c-1.2 0-2.4 0.1-3.6 0.2 15.6 1.8 27.7 15 27.7 31.1s-12.1 29.3-27.7 31.1c1.2 0.1 2.4 0.2 3.6 0.2 17.3 0 31.3-14 31.3-31.3s-14.1-31.3-31.3-31.3z" fill="#7ED2FC" p-id="2390"></path><path d="M327.7 729.5c-20 0-36.2-16.2-36.2-36.2 0-20 16.2-36.2 36.2-36.2 20 0 36.2 16.2 36.2 36.2 0 20-16.2 36.2-36.2 36.2z" fill="#C0E6FC" p-id="2391"></path><path d="M327.7 662.1c17.3 0 31.3 14 31.3 31.3s-14 31.3-31.3 31.3-31.3-14-31.3-31.3 14.1-31.3 31.3-31.3m0-9.9c-22.7 0-41.1 18.4-41.1 41.1s18.4 41.1 41.1 41.1 41.1-18.4 41.1-41.1-18.4-41.1-41.1-41.1z" fill="#6D4120" p-id="2392"></path><path d="M327.7 662.1c-1.2 0-2.4 0.1-3.6 0.2 15.6 1.8 27.7 15 27.7 31.1s-12.1 29.3-27.7 31.1c1.2 0.1 2.4 0.2 3.6 0.2 17.3 0 31.3-14 31.3-31.3s-14-31.3-31.3-31.3z" fill="#7ED2FC" p-id="2393"></path><path d="M341.9 505.3c-2.6 0-4.8-2.1-4.9-4.7-0.4-11 0.3-22.1 2.1-32.9 0.5-2.7 3-4.5 5.7-4s4.5 3 4 5.7c-1.7 10.2-2.4 20.6-2 30.9 0.1 2.7-2 5-4.7 5.1-0.1-0.1-0.2-0.1-0.2-0.1z" fill="#FFFFFF" p-id="2394"></path><path d="M350.2 453.3c-0.6 0-1.2-0.1-1.8-0.3-2.5-1-3.8-3.8-2.8-6.4 12.6-32.3 32.1-51 32.9-51.8 2-1.9 5.1-1.8 6.9 0.2 1.9 2 1.8 5.1-0.2 6.9-0.2 0.2-18.7 18.1-30.5 48.2-0.7 2-2.5 3.2-4.5 3.2z" fill="#FFFFFF" p-id="2395"></path></svg>